<svg aria-hidden="true" style="position: absolute; width: 0; height: 0; overflow: hidden;" version="1.1" xmlns="http://www.w3.org/2000/svg" xmlns:xlink="http://www.w3.org/1999/xlink">
<defs>
<symbol id="icon-hero-vector" viewBox="0 0 56 32">
<path d="M30.84 21.6c-0.372 0.375-0.814 0.673-1.302 0.876s-1.010 0.308-1.538 0.308c-0.528 0-1.051-0.105-1.538-0.308s-0.93-0.501-1.302-0.876l-18.32-18.36c-0.372-0.375-0.814-0.672-1.302-0.876s-1.010-0.308-1.538-0.308c-0.528 0-1.051 0.105-1.538 0.308s-0.93 0.501-1.302 0.876c-0.745 0.749-1.163 1.763-1.163 2.82s0.418 2.071 1.163 2.82l18.36 18.36c2.25 2.247 5.3 3.509 8.48 3.509s6.23-1.262 8.48-3.509l18.36-18.36c0.739-0.745 1.156-1.751 1.16-2.8 0.003-0.526-0.098-1.048-0.297-1.536s-0.492-0.931-0.863-1.304c-0.372-0.375-0.814-0.672-1.302-0.876s-1.010-0.308-1.538-0.308c-0.528 0-1.051 0.105-1.538 0.308s-0.93 0.501-1.302 0.876l-18.32 18.36z"></path>
</symbol>
</defs>
</svg>
